<?xml version="1.0" encoding="iso-8859-1"?>
<!-- Generator: Adobe Illustrator 16.0.0, SVG Export Plug-In . SVG Version: 6.00 Build 0)  -->
<!DOCTYPE svg PUBLIC "-//W3C//DTD SVG 1.1//EN" "http://www.w3.org/Graphics/SVG/1.1/DTD/svg11.dtd">
<svg version="1.1" id="Capa_1" xmlns="http://www.w3.org/2000/svg" xmlns:xlink="http://www.w3.org/1999/xlink" x="0px" y="0px"
	 width="622.126px" height="622.126px" viewBox="0 0 622.126 622.126" style="enable-background:new 0 0 622.126 622.126;"
	 xml:space="preserve">
<g>
	<g>
		<defs>
			<rect id="SVGID_1_" y="35.829" width="622.126" height="550.468"/>
		</defs>
		<clipPath id="SVGID_2_">
			<use xlink:href="#SVGID_1_"  style="overflow:visible;"/>
		</clipPath>
		<path style="clip-path:url(#SVGID_2_);fill:#27241F;" d="M190.289,420.873c-51.406,0-93.094-41.674-93.094-93.099
			c0-51.383,41.679-93.099,93.094-93.099c51.411,0,93.099,41.716,93.099,93.099C283.388,379.199,241.7,420.873,190.289,420.873
			L190.289,420.873z M427.86,261.003c-18.811-20.825-45.035-34.952-74.464-38.009c-60.736-11.226-101.817-36.421-121.485-51.283
			c-0.284,0-0.441-0.28-0.739-0.588c-5.234-4.062-9.021-6.982-10.922-8.879c-0.574-0.882-1.313-1.166-1.882-1.745
			c-22.731-17.047-50.979-26.808-81.428-26.808C61.318,133.692,0,195.02,0,270.622c0,34.222,12.377,65.419,33.203,89.301
			c0,0,0.886,0.712,2.342,2.617c0.602,0.598,1.166,1.337,1.744,2.186c6.983,9.334,21.129,34.094,25.651,84.789
			c0.147,2.759,0.426,5.679,0.573,8.599c7.282,72.113,67.894,128.184,141.903,128.184c45.31,0,85.661-21.123,111.725-53.899
			c3.792-5.821,7.566-11.197,11.207-16.317c34.976-50.4,56.98-66.424,64.537-70.937c2.038-1.024,3.062-1.46,3.062-1.46
			c37.014-19.664,62.356-58.726,62.356-103.86C458.303,309.38,446.784,281.848,427.86,261.003L427.86,261.003z"/>
		<path style="clip-path:url(#SVGID_2_);fill:#27241F;" d="M422.55,35.829c-93.218,0-171.303,43.845-193.456,103.139
			c0,0,47.201,52.586,129.8,62.21c71.677,8.443,162.429,91.046,112.027,202.325l-0.142,0.171c0,0.151-0.161,0.284-0.161,0.284
			c-2.229,3.432-15.739,23.475-29.647,37.782c-0.199,0.218-0.256,0.369-0.455,0.597c-10.723,12.041,0,13.056,0,13.056
			c7.196,0,9.709,0,9.709,0h93.53c19.369,0,34.805-15.587,34.805-34.976V258.292c27.391-23.3,43.565-52.88,43.565-85.358
			C622.145,97.157,532.843,35.829,422.55,35.829L422.55,35.829z"/>
	</g>
	<path style="fill:#27241F;" d="M146.112,287.37c0,0,13.729-17.981,37.265-19.128c15.316-0.223,24.883,4.333,27.841,8.429
		c2.963,4.096,7.964,18.659-9.562,23.669c-3.641,0.455-10.007-2.048-10.007-2.048s-12.975-3.641-21.398,5.911
		c-3.418,4.319-4.779,7.732-5.457,10.021c-0.683,2.28-3.778,11.614-14.07,11.377c-10.292-0.218-16.436-10.245-13.695-19.583
		C139.746,296.7,146.112,287.37,146.112,287.37L146.112,287.37z"/>
</g>
<g>
</g>
<g>
</g>
<g>
</g>
<g>
</g>
<g>
</g>
<g>
</g>
<g>
</g>
<g>
</g>
<g>
</g>
<g>
</g>
<g>
</g>
<g>
</g>
<g>
</g>
<g>
</g>
<g>
</g>
</svg>
